<svg xmlns="http://www.w3.org/2000/svg" viewBox="0 0 466.8 446.11"><defs><style>.cls-1{fill:#627b89;}.cls-2{fill:#58d7dd;}.cls-3{fill:#a5b8f9;}.cls-4{fill:#5cade5;}</style></defs><g id="レイヤー_2" data-name="レイヤー 2"><g id="レイヤー_1-2" data-name="レイヤー 1"><path class="cls-1" d="M323.67,376.58c-43.67,18-92.59,28.86-131.73,41.79-48.1,15.89-159.48,59.44-184.54-12-14.94-42.55-3.81-98.24,3.39-141.49,7.67-46.08,19.66-92.51,41.74-134,31.23-58.62,99.69-79.62,159-97.21A793,793,0,0,1,338.28,7.19c31-3.88,79-17.19,104.5,6.77,36.64,34.46,22.6,107.75,14.41,151a758,758,0,0,1-31.86,115.49C407.62,329.59,372,356.66,323.67,376.58ZM160.18,193.16a51.66,51.66,0,0,0,22.72-3.39c20.58-7.74,38.53-22,51.62-39.61,18.13-24.35,27.36-54.52,30-84.76.71-8.16.28-17.82-6.43-22.53-5.26-3.69-12.35-2.8-18.67-1.61-37,7-196.42,47.56-152.34,112,8.38,12.25,22,19.71,35.2,26.43S147.43,192.15,160.18,193.16Zm215-176.34a425.44,425.44,0,0,0-47.84,10.87c-13.88,4-29.36,9.81-38.72,21.43-15,18.67-16.88,61,4.87,74.85,9.33,5.93,20.46,8.15,31.3,10.27l58,11.33c9.16,1.78,18.49,3.58,27.75,2.47C437,144.9,441.74,120,445.36,98.2a151.86,151.86,0,0,0-.05-50.29c-1.82-10.71-5.3-22-13.92-28.58-9.75-7.44-23.26-6.89-35.44-5.46Q385.54,15.09,375.21,16.82Zm-38.3,291.72a30,30,0,0,0-11.85-15.76c-15.19-10.27-34.5-13.65-52.43-10.39-22.4,4.08-35.23,21.21-52.24,34.34-22.7,17.52-44.56,35.4-64.7,55.87-3.64,3.7-7.29,7.53-9.51,12.22s-2.83,10.43-.33,15,7.73,7.13,12.9,7.77c38.32,4.74,82.14-18.53,116.56-33.11,10.34-4.38,20.31-9.7,30.22-15,6.91-3.7,14.05-7.36,20-12.35C336.94,337.47,341.17,321.63,336.91,308.54ZM23.47,291.37c.4,4.21,1.83,8,5.13,10.65,6.53,5.2,16.09,2.18,23.69-1.28a395.21,395.21,0,0,0,79.81-48.49c10.48-8.21,21.54-19.4,19.64-32.58-1.61-11.12-11.91-18.66-21.63-24.29-13.62-7.89-38.52-24.79-54.75-22.45C62.47,174.8,52,188.39,46.28,198.83,33.06,223,29.84,251.42,24.58,278A48,48,0,0,0,23.47,291.37Zm241.6-45.74c23.61.26,46.26-15.86,66.56-26.38C342.2,213.77,352.7,208,363,202c7.83-4.6,18-7.9,24.15-14.82,4.71-5.34,6.41-14.08,1.82-19.53-3.76-4.45-10.17-5.31-16-5.86-24.61-2.35-49.37-4.69-74-2.74-21,1.67-43.66,6.33-61.82,17.5-13.94,8.57-32.09,32.44-18.32,47.91a64.06,64.06,0,0,0,45.07,21.15ZM18.63,376C16.4,410.24,28.54,432.15,65,431c12.73-.41,26.26-2.16,36-10.31,7.64-6.37,12-16,13.91-25.75,3.75-19.35,2.63-37-14.57-48.8A31.27,31.27,0,0,1,94,340.71c-13.35-16.07-37.68-22.87-55.28-9.55C27.14,339.92,21,354.37,19.29,368.77,19,371.05,18.8,373.48,18.63,376Zm206-94.63c0-9.87-6.52-17.72-14.12-23.46-14.67-11.09-42.9-2.65-58.67,3C129.23,269,74.64,297.5,98.73,327.62c4.75,5.95,11.12,10.37,17.39,14.69s12.73,8.62,20.18,8.89c6.63.25,12.9-2.82,18.7-6,14.89-8.27,28.39-18.69,41.52-29.49,10.53-8.68,27.24-17.76,28-33C224.57,282.24,224.58,281.81,224.58,281.39Zm109.83-13a40.92,40.92,0,0,0,2.09,10.84c4.34,13.26,14,24,23.35,34.34,3.71,4.07,8,8.46,13.55,8.63,5.71.18,10.42-4.25,14.15-8.59a142,142,0,0,0,32.19-69.11c.71-4.29,1.19-8.81-.3-12.9-2.76-7.56-11.72-11.37-19.75-10.77-8.48.63-16.22,5.3-24,8.12-8.41,3-17.09,5.18-24.75,10.09C339.79,246.18,333.83,256.17,334.41,268.37Z"/><path class="cls-2" d="M375.21,16.82a425.44,425.44,0,0,0-47.84,10.87c-13.88,4-29.36,9.81-38.72,21.43-15,18.67-16.88,61,4.87,74.85,9.33,5.93,20.46,8.15,31.3,10.27l58,11.33c9.16,1.78,18.49,3.58,27.75,2.47C437,144.9,441.74,120,445.36,98.2a151.86,151.86,0,0,0-.05-50.29c-1.82-10.71-5.3-22-13.92-28.58-9.75-7.44-23.26-6.89-35.44-5.46Q385.54,15.09,375.21,16.82Z"/><path class="cls-3" d="M334.41,268.37a40.92,40.92,0,0,0,2.09,10.84c4.34,13.26,14,24,23.35,34.34,3.71,4.07,8,8.46,13.55,8.63,5.71.18,10.42-4.25,14.15-8.59a142,142,0,0,0,32.19-69.11c.71-4.29,1.19-8.81-.3-12.9-2.76-7.56-11.72-11.37-19.75-10.77-8.48.63-16.22,5.3-24,8.12-8.41,3-17.09,5.18-24.75,10.09C339.79,246.18,333.83,256.17,334.41,268.37Z"/><path class="cls-3" d="M160.18,193.16a51.66,51.66,0,0,0,22.72-3.39c20.58-7.74,38.53-22,51.62-39.61,18.13-24.35,27.36-54.52,30-84.76.71-8.16.28-17.82-6.43-22.53-5.26-3.69-12.35-2.8-18.67-1.61-37,7-196.42,47.56-152.34,112,8.38,12.25,22,19.71,35.2,26.43S147.43,192.15,160.18,193.16Z"/><path class="cls-3" d="M224.55,282.67c0-.43,0-.86,0-1.28,0-9.87-6.52-17.72-14.12-23.46-14.67-11.09-42.9-2.65-58.67,3C129.23,269,74.64,297.5,98.73,327.62c4.75,5.95,11.12,10.37,17.39,14.69s12.73,8.62,20.18,8.89c6.63.25,12.9-2.82,18.7-6,14.89-8.27,28.39-18.69,41.52-29.49,10.53-8.68,27.24-17.76,28-33"/><path class="cls-4" d="M263.89,245.61l1.18,0c23.61.26,46.26-15.86,66.56-26.38C342.2,213.77,352.7,208,363,202c7.83-4.6,18-7.9,24.15-14.82,4.71-5.34,6.41-14.08,1.82-19.53-3.76-4.45-10.17-5.31-16-5.86-24.61-2.35-49.37-4.69-74-2.74-21,1.67-43.66,6.33-61.82,17.5-13.94,8.57-32.09,32.44-18.32,47.91a64.06,64.06,0,0,0,45.07,21.15"/><path class="cls-4" d="M23.47,291.37c.4,4.21,1.83,8,5.13,10.65,6.53,5.2,16.09,2.18,23.69-1.28a395.21,395.21,0,0,0,79.81-48.49c10.48-8.21,21.54-19.4,19.64-32.58-1.61-11.12-11.91-18.66-21.63-24.29-13.62-7.89-38.52-24.79-54.75-22.45C62.47,174.8,52,188.39,46.28,198.83,33.06,223,29.84,251.42,24.58,278A48,48,0,0,0,23.47,291.37Z"/><path class="cls-4" d="M336.91,308.54a30,30,0,0,0-11.85-15.76c-15.19-10.27-34.5-13.65-52.43-10.39-22.4,4.08-35.23,21.21-52.24,34.34-22.7,17.52-44.56,35.4-64.7,55.87-3.64,3.7-7.29,7.53-9.51,12.22s-2.83,10.43-.33,15,7.73,7.13,12.9,7.77c38.32,4.74,82.14-18.53,116.56-33.11,10.34-4.38,20.31-9.7,30.22-15,6.91-3.7,14.05-7.36,20-12.35C336.94,337.47,341.17,321.63,336.91,308.54Z"/><path class="cls-2" d="M18.63,376C16.4,410.24,28.54,432.15,65,431c12.73-.41,26.26-2.16,36-10.31,7.64-6.37,12-16,13.91-25.75,3.75-19.35,2.63-37-14.57-48.8A31.27,31.27,0,0,1,94,340.71c-13.35-16.07-37.68-22.87-55.28-9.55C27.14,339.92,21,354.37,19.29,368.77,19,371.05,18.8,373.48,18.63,376Z"/></g></g></svg>