<svg xmlns="http://www.w3.org/2000/svg" viewBox="0 0 471.35 545.65"><defs><style>.cls-1{fill:#547054;}.cls-2{fill:#3caf47;}.cls-3{fill:#1ed36c;}.cls-4{fill:#26912b;}.cls-5{fill:#20d1a2;}</style></defs><g id="レイヤー_2" data-name="レイヤー 2"><g id="レイヤー_2-2" data-name="レイヤー 2"><path class="cls-1" d="M279.24,47C329,24.71,380.28-16,415.57,6.61c22.13,14.16,31.39,66.87,38,122.1,4.34,36.52,1.1,59.58,4.22,83,9.09,68.55,15.73,95.75,13,119.66-2.31,20.06,3.66,44.83-26,74.84-17.79,18-44.8,37.91-86.21,59.82C248.11,524.5,250.7,565.81,166.09,535.38S50.53,489.23,20.94,468.87s-25.26-62.95-3-167.21c12.16-57,28.36-99.15,50.21-123.06C86.3,158.74,225.88,71,279.24,47Z"/><path class="cls-2" d="M328.52,37.24c46.23-25.66,84.39-31.7,93,24.75s9.65,66,8.38,87.74-11,41.17-38.73,55.89-58,29.92-81,40.4-44.46-7.57-48.32-34-10-17.77-7-70.8,21.84-69.27,34.61-78.45S328.52,37.24,328.52,37.24Z"/><path class="cls-3" d="M395.73,222.28c29.52-12.06,39.66-5.38,43.48,21.7s17.25,98.46,4.17,125.78-12.08,28-40.86,19.74-39.42-11.29-51.76-14.9-21.13-7.6-31.33-22.52-14.36-20.16-22.87-39.35,1.8-40.57,24.93-53.6S395.73,222.28,395.73,222.28Z"/><path class="cls-4" d="M183.61,119.73c34-19.14,59.77-20.15,33.4,30.32s-24.44,38-33.4,64.94-10,46.28-29.73,53.23-31.26-6.1-38.22-13.56-24-32.93-31-46S82.25,184.49,96,174.85s38.11-19.18,53.88-29.14S169.32,127.77,183.61,119.73Z"/><path class="cls-4" d="M206.83,211.22c8.85-23.38,9-33.22,21.92-37.95s12.07-1.66,12.2,9.4,1.91,36.42,14.35,56.9,12.63,47.07,18,63.86,11.48,27.62,9.88,39.45-11.25,23.71-21.47,31.7-17.22,18.17-25.05,7.57-35.56-45.29-40.85-69.42-10.68-40.31-5.3-56.13S202.64,222.27,206.83,211.22Z"/><path class="cls-3" d="M55.86,242.25c4.72-14.15,16.62-19.73,22.93-7.25S97,256,97,256s15,9.9,0,20.36-39.6,29-50.32,34.06S28.85,310.16,35,298.75a315.44,315.44,0,0,0,14.48-31.3C52.72,259.35,52.83,251.33,55.86,242.25Z"/><path class="cls-5" d="M57.47,336.49c25.54-41.48,48.44-45.3,80.67-41s40.71,22.48,50,39.28,20.15,34,22.38,44,14.34,43,13.3,65.12-3.6,39.2-.46,57.38,7.72,34.84-27.31,23.23-67.19-24.66-82.26-31.7S57.43,470.33,45,461.2s-25.81-18.07-27.66-34.4,6.86-36.92,12.61-48S50.05,348.55,57.47,336.49Z"/><path class="cls-2" d="M242.46,449.87c2.71-17.7,10-36.36,22-49.3s17.14-25.33,36.48-21.76,73.79,17,86.55,21.34,17.64,5.8,23.56,8.33,1.3,7-4.51,10.64-44.45,24.63-64.4,37.3-56.17,35.87-67,41.65-30.42,1.2-31-11.63S241.32,457.35,242.46,449.87Z"/></g></g></svg>